<?xml version="1.0" encoding="utf-8"?>
<svg viewBox="0 0 500 500" width="500" height="500" xmlns="http://www.w3.org/2000/svg">
  <path d="M 160.818 499.97 C 115.987 499.97 78.088 484.427 47.121 453.342 C 16.156 422.258 0.671 384.212 0.671 339.209 L 0.671 159.658 C 0.671 114.655 16.156 76.611 47.121 45.525 C 78.088 14.441 115.987 -1.102 160.818 -1.102 L 339.684 -1.102 C 384.517 -1.102 422.415 14.441 453.382 45.525 C 484.347 76.611 499.831 114.655 499.831 159.658 L 499.831 339.209 C 499.831 384.212 484.347 422.258 453.382 453.342 C 422.415 484.427 384.517 499.97 339.684 499.97 L 160.818 499.97 Z M 160.818 458.214 L 339.684 458.214 C 372.5 458.214 400.462 446.614 423.571 423.417 C 446.68 400.219 458.234 372.149 458.234 339.209 L 458.234 159.658 C 458.234 126.718 446.68 98.648 423.571 75.451 C 400.462 52.253 372.5 40.654 339.684 40.654 L 160.818 40.654 C 128.002 40.654 100.042 52.253 76.931 75.451 C 53.822 98.648 42.268 126.718 42.268 159.658 L 42.268 339.209 C 42.268 372.149 53.822 400.219 76.931 423.417 C 100.042 446.614 128.002 458.214 160.818 458.214 Z M 250.252 249.433 Z" style=""/>
</svg>